<svg 
          width="36.759159088134766" 
          height="39" fill="none" 
          xmlns="http://www.w3.org/2000/svg">
          <path d="M 36.65375900268555 12.690235137939453 C 36.90512618422508 13.345313310623169 36.69184648990631 14.084179282188416 36.17387771606445 14.564062118530273 L 32.875633239746094 17.565235137939453 C 32.959422305226326 18.19746172428131 33.005126953125 18.844921827316284 33.005126953125 19.5 C 33.005126953125 20.155078172683716 32.959422305226326 20.80253827571869 32.875633239746094 21.434764862060547 L 36.17387771606445 24.435935974121094 C 36.69184648990631 24.91581881046295 36.90512618422508 25.65468668937683 36.65375900268555 26.309764862060547 C 36.31860274076462 27.21621012687683 35.914894104003906 28.092189073562622 35.457862854003906 28.922462463378906 L 35.099853515625 29.539451599121094 C 34.59711915254593 30.377342224121094 34.03344655036926 31.16953206062317 33.41645431518555 31.923633575439453 C 32.95942306518555 32.464453876018524 32.220555901527405 32.65488204360008 31.550243377685547 32.44160079956055 L 27.307470321655273 31.085742950439453 C 26.28676724433899 31.87031328678131 25.090868711471558 32.52539139986038 23.955907821655273 33.02812576293945 L 23.003759384155273 37.377540588378906 C 22.851415634155273 38.063087463378906 22.318212866783142 38.55058592557907 21.617431640625 38.7333984375 C 20.566259741783142 38.908593744039536 19.484619855880737 39 18.311573028564453 39 C 17.275635480880737 39 16.193994164466858 38.908593744039536 15.142822265625 38.7333984375 C 14.442041039466858 38.55058592557907 13.908838272094727 38.063087463378906 13.756494522094727 37.377540588378906 L 12.804346084594727 33.02812576293945 C 11.600830435752869 32.52539139986038 10.47348666191101 31.87031328678131 9.452783584594727 31.085742950439453 L 5.213057041168213 32.44160079956055 C 4.539697647094727 32.65488204360008 3.7970218658447266 32.464453876018524 3.3460843563079834 31.923633575439453 C 2.7283304929733276 31.16953206062317 2.164658486843109 30.377342224121094 1.661924123764038 29.539451599121094 L 1.3054397106170654 28.922462463378906 C 0.8430764079093933 28.092189073562622 0.4408888444304466 27.21621012687683 0.10344745963811874 26.309764862060547 C -0.14334941655397415 25.65468668937683 0.06459981203079224 24.91581881046295 0.5871388912200928 24.435935974121094 L 3.8823342323303223 21.434764862060547 C 3.79854516685009 20.80253827571869 3.755127191543579 20.155078172683716 3.755127191543579 19.5 C 3.755127191543579 18.844921827316284 3.79854516685009 18.19746172428131 3.8823342323303223 17.565235137939453 L 0.5871388912200928 14.564062118530273 C 0.06459981203079224 14.084179282188416 -0.14334941655397415 13.352930426597595 0.10344745963811874 12.690235137939453 C 0.4408888444304466 11.783789873123169 0.8438381552696228 10.90781283378601 1.3054397106170654 10.077539443969727 L 1.661162257194519 9.460546493530273 C 2.1646583676338196 8.622655868530273 2.7283304929733276 7.830468416213989 3.3460843563079834 7.080175399780273 C 3.7970218658447266 6.5355464816093445 4.539697647094727 6.346640557050705 5.213057041168213 6.561445236206055 L 9.452783584594727 7.914258003234863 C 10.47348666191101 7.126640796661377 11.600830435752869 6.471562564373016 12.804346084594727 5.974160194396973 L 13.756494522094727 1.6247460842132568 C 13.908838272094727 0.93310546875 14.442041039466858 0.3839062452316284 15.142822265625 0.2673632800579071 C 16.193994164466858 0.09148241579532623 17.275634765625 0 18.380126953125 0 C 19.484619140625 0 20.566259741783142 0.09148241579532623 21.617431640625 0.2673632800579071 C 22.318212866783142 0.3839062452316284 22.851415634155273 0.93310546875 23.003759384155273 1.6247460842132568 L 23.955907821655273 5.974160194396973 C 25.090868711471558 6.471562564373016 26.28676724433899 7.126640796661377 27.307470321655273 7.914258003234863 L 31.550243377685547 6.561445236206055 C 32.220555901527405 6.346640557050705 32.95942306518555 6.5355464816093445 33.41645431518555 7.080175399780273 C 34.03344655036926 7.830468416213989 34.59711915254593 8.622655868530273 35.099853515625 9.460546493530273 L 35.457862854003906 10.077539443969727 C 35.914894104003906 10.90781283378601 36.31860274076462 11.783789873123169 36.65375900268555 12.690235137939453 Z M 18.380126953125 25.59375 C 21.74692392349243 25.59375 24.473876953125 22.86679744720459 24.473876953125 19.431446075439453 C 24.473876953125 16.133203983306885 21.74692392349243 13.337696075439453 18.380126953125 13.337696075439453 C 15.013329982757568 13.337696075439453 12.286376953125 16.133203983306885 12.286376953125 19.431446075439453 C 12.286376953125 22.86679744720459 15.013329982757568 25.59375 18.380126953125 25.59375 Z" fill="rgb(0,24.000000469386578,88.00000235438347)"/>
        </svg>