<?xml version="1.0" standalone="no"?><svg xmlns="http://www.w3.org/2000/svg" viewBox="0 0 1440 320"><path fill="#8BD3DD" fill-opacity="1" d="M0,128L21.8,128C43.6,128,87,128,131,154.7C174.5,181,218,235,262,234.7C305.5,235,349,181,393,160C436.4,139,480,149,524,176C567.3,203,611,245,655,250.7C698.2,256,742,224,785,202.7C829.1,181,873,171,916,144C960,117,1004,75,1047,96C1090.9,117,1135,203,1178,202.7C1221.8,203,1265,117,1309,80C1352.7,43,1396,53,1418,58.7L1440,64L1440,320L1418.2,320C1396.4,320,1353,320,1309,320C1265.5,320,1222,320,1178,320C1134.5,320,1091,320,1047,320C1003.6,320,960,320,916,320C872.7,320,829,320,785,320C741.8,320,698,320,655,320C610.9,320,567,320,524,320C480,320,436,320,393,320C349.1,320,305,320,262,320C218.2,320,175,320,131,320C87.3,320,44,320,22,320L0,320Z"></path></svg>